<svg width="32" height="32" viewBox="0 0 32 32" fill="none" xmlns="http://www.w3.org/2000/svg">
<path fill-rule="evenodd" clip-rule="evenodd" d="M21.3334 12.0003C21.3334 14.9458 18.9455 17.3337 16 17.3337C13.0545 17.3337 10.6667 14.9458 10.6667 12.0003C10.6667 9.05481 13.0545 6.66699 16 6.66699C18.9455 6.66699 21.3334 9.05481 21.3334 12.0003ZM18.6667 12.0003C18.6667 13.4731 17.4728 14.667 16 14.667C14.5272 14.667 13.3334 13.4731 13.3334 12.0003C13.3334 10.5276 14.5272 9.33366 16 9.33366C17.4728 9.33366 18.6667 10.5276 18.6667 12.0003Z" fill="#142445"/>
<path fill-rule="evenodd" clip-rule="evenodd" d="M16 1.33301C7.89981 1.33301 1.33331 7.8995 1.33331 15.9997C1.33331 24.0998 7.89981 30.6663 16 30.6663C24.1001 30.6663 30.6666 24.0998 30.6666 15.9997C30.6666 7.8995 24.1001 1.33301 16 1.33301ZM3.99998 15.9997C3.99998 18.7866 4.95005 21.3517 6.54395 23.3886C8.73658 20.5182 12.195 18.6663 16.086 18.6663C19.9264 18.6663 23.3456 20.4705 25.542 23.2774C27.084 21.2587 28 18.7362 28 15.9997C28 9.37226 22.6274 3.99967 16 3.99967C9.37257 3.99967 3.99998 9.37226 3.99998 15.9997ZM16 27.9997C13.133 27.9997 10.5008 26.9942 8.43687 25.3167C10.1247 22.9079 12.9214 21.333 16.086 21.333C19.2112 21.333 21.9777 22.8691 23.6717 25.2275C21.5918 26.9585 18.9174 27.9997 16 27.9997Z" fill="#142445"/>
</svg>
