<svg width="17" height="15" viewBox="0 0 17 15" fill="none" xmlns="http://www.w3.org/2000/svg">
<mask id="mask0_214_882" style="mask-type:luminance" maskUnits="userSpaceOnUse" x="0" y="0" width="18" height="15">
<path d="M12.0179 13L15.3571 7.5L12.0179 2H5.33929L2 7.5L5.33929 13H12.0179Z" fill="white" stroke="white" stroke-width="4" stroke-linejoin="round"/>
<path d="M8.67861 9.11762C9.12143 9.11762 9.54611 8.94719 9.85923 8.64382C10.1723 8.34045 10.3483 7.929 10.3483 7.49997C10.3483 7.07094 10.1723 6.65949 9.85923 6.35612C9.54611 6.05275 9.12143 5.88232 8.67861 5.88232C8.2358 5.88232 7.81112 6.05275 7.498 6.35612C7.18488 6.65949 7.00897 7.07094 7.00897 7.49997C7.00897 7.929 7.18488 8.34045 7.498 8.64382C7.81112 8.94719 8.2358 9.11762 8.67861 9.11762Z" fill="black" stroke="black" stroke-width="4" stroke-linejoin="round"/>
</mask>
<g mask="url(#mask0_214_882)">
<path d="M0.665161 -0.264648H16.6937V15.2648H0.665161V-0.264648Z" fill="#4B5563"/>
<path d="M0.665161 -0.264648H16.6937V15.2648H0.665161V-0.264648Z" fill="#4B5563"/>
</g>
</svg>
