<svg width="28" height="28" viewBox="0 0 28 28" fill="none" xmlns="http://www.w3.org/2000/svg">
<path d="M27.7013 10.9075C27.0551 7.86688 25.3413 5.09938 22.8751 3.115C20.353 1.09707 17.2188 -0.00159413 13.9888 1.7361e-06C10.1813 1.7361e-06 6.62507 1.46688 3.96632 4.13063C1.39694 6.70813 -0.0111831 10.1113 6.68919e-05 13.7106C0.000154364 16.3496 0.774891 18.9304 2.22819 21.1331L2.50007 21.5113L1.00007 28L8.17507 26.215C8.17507 26.215 8.31882 26.2631 8.42507 26.3038C8.53132 26.3444 9.44569 26.695 10.4157 26.9663C11.2219 27.1913 12.8994 27.5288 14.2138 27.5288C17.9419 27.5288 21.4232 26.085 24.0157 23.4625C26.5851 20.8606 28.0001 17.4013 28.0001 13.7181C28.0003 12.7733 27.9001 11.8312 27.7013 10.9075Z" fill="white"/>
</svg>
