<svg width="32" height="32" viewBox="0 0 32 32" fill="none" xmlns="http://www.w3.org/2000/svg">
<path d="M12 9.33337H14.6667V16H21.3333V18.6667H12V9.33337Z" fill="#FFEFEF"/>
<path fill-rule="evenodd" clip-rule="evenodd" d="M29.3333 16C29.3333 23.3637 23.3637 29.3333 16 29.3333C8.6362 29.3333 2.66667 23.3637 2.66667 16C2.66667 8.63616 8.6362 2.66663 16 2.66663C23.3637 2.66663 29.3333 8.63616 29.3333 16ZM26.6667 16C26.6667 21.891 21.8911 26.6666 16 26.6666C10.109 26.6666 5.33334 21.891 5.33334 16C5.33334 10.1089 10.109 5.33329 16 5.33329C21.8911 5.33329 26.6667 10.1089 26.6667 16Z" fill="#FFEFEF"/>
</svg>
