<svg width="32" height="32" viewBox="0 0 32 32" fill="none" xmlns="http://www.w3.org/2000/svg">
<path fill-rule="evenodd" clip-rule="evenodd" d="M21.3334 12C21.3334 14.9454 18.9455 17.3333 16 17.3333C13.0545 17.3333 10.6667 14.9454 10.6667 12C10.6667 9.05444 13.0545 6.66663 16 6.66663C18.9455 6.66663 21.3334 9.05444 21.3334 12ZM18.6667 12C18.6667 13.4728 17.4728 14.6666 16 14.6666C14.5272 14.6666 13.3334 13.4728 13.3334 12C13.3334 10.5272 14.5272 9.33329 16 9.33329C17.4728 9.33329 18.6667 10.5272 18.6667 12Z" fill="white"/>
<path fill-rule="evenodd" clip-rule="evenodd" d="M16 1.33337C7.89981 1.33337 1.33331 7.89987 1.33331 16C1.33331 24.1002 7.89981 30.6667 16 30.6667C24.1001 30.6667 30.6666 24.1002 30.6666 16C30.6666 7.89987 24.1001 1.33337 16 1.33337ZM3.99998 16C3.99998 18.787 4.95005 21.352 6.54395 23.389C8.73658 20.5186 12.195 18.6667 16.086 18.6667C19.9264 18.6667 23.3456 20.4708 25.542 23.2778C27.084 21.2591 28 18.7366 28 16C28 9.37263 22.6274 4.00004 16 4.00004C9.37257 4.00004 3.99998 9.37263 3.99998 16ZM16 28C13.133 28 10.5008 26.9946 8.43687 25.3171C10.1247 22.9083 12.9214 21.3334 16.086 21.3334C19.2112 21.3334 21.9777 22.8695 23.6717 25.2279C21.5918 26.9588 18.9174 28 16 28Z" fill="white"/>
</svg>
