<svg width="24" height="24" viewBox="0 0 24 24" fill="none" xmlns="http://www.w3.org/2000/svg">
<path d="M15.9936 14.0056C15.4445 13.4565 14.5541 13.4565 14.0049 14.0056C13.4557 14.5548 13.4557 15.4452 14.0049 15.9944L15.9936 14.0056ZM20.0049 21.9944C20.5541 22.5435 21.4445 22.5435 21.9936 21.9944C22.5428 21.4452 22.5428 20.5548 21.9936 20.0056L20.0049 21.9944ZM9.99927 15.5938C6.90992 15.5938 4.40552 13.0893 4.40552 10H1.59302C1.59302 14.6426 5.35662 18.4062 9.99927 18.4062V15.5938ZM15.593 10C15.593 13.0893 13.0886 15.5938 9.99927 15.5938V18.4062C14.6419 18.4062 18.4055 14.6426 18.4055 10H15.593ZM9.99927 4.40625C13.0886 4.40625 15.593 6.91066 15.593 10H18.4055C18.4055 5.35736 14.6419 1.59375 9.99927 1.59375V4.40625ZM9.99927 1.59375C5.35662 1.59375 1.59302 5.35736 1.59302 10H4.40552C4.40552 6.91066 6.90992 4.40625 9.99927 4.40625V1.59375ZM14.0049 15.9944L20.0049 21.9944L21.9936 20.0056L15.9936 14.0056L14.0049 15.9944Z" fill="#AEAEB0"/>
</svg>
